<?xml version="1.0" standalone="no"?>
<!DOCTYPE svg PUBLIC "-//W3C//DTD SVG 20010904//EN"
 "http://www.w3.org/TR/2001/REC-SVG-20010904/DTD/svg10.dtd">
<svg version="1.0" xmlns="http://www.w3.org/2000/svg"
 width="480.000000pt" height="360.000000pt" viewBox="0 0 480.000000 360.000000"
 preserveAspectRatio="xMidYMid meet">

<g transform="translate(0.000000,360.000000) scale(0.100000,-0.100000)"
fill="#000000" stroke="none">
<path d="M1860 3040 c-44 -44 -10 -120 54 -120 36 0 60 20 69 60 5 18 0 32
-20 52 -32 33 -74 37 -103 8z"/>
<path d="M1667 2993 c-15 -15 -6 -52 14 -58 28 -9 53 16 44 44 -6 20 -43 29
-58 14z"/>
<path d="M1305 2881 c-9 -28 1 -41 31 -41 22 0 25 4 22 28 -4 34 -43 44 -53
13z"/>
<path d="M2030 2870 c-44 -44 -10 -120 54 -120 36 0 60 20 69 60 5 18 0 32
-20 52 -32 33 -74 37 -103 8z"/>
<path d="M1565 2851 c-9 -28 1 -41 31 -41 22 0 25 4 22 28 -4 34 -43 44 -53
13z"/>
<path d="M1398 2823 c-42 -50 -27 -106 33 -124 40 -13 42 -12 66 16 28 32 26
74 -4 107 -21 23 -75 23 -95 1z"/>
<path d="M2540 2820 c-44 -44 -10 -120 53 -120 40 1 62 17 71 54 6 23 2 34
-20 57 -33 34 -75 38 -104 9z"/>
<path d="M1780 2750 c-24 -24 -27 -82 -4 -104 9 -9 32 -16 54 -16 33 0 42 5
55 29 37 73 -49 147 -105 91z"/>
<path d="M2218 2733 c-42 -50 -27 -106 33 -124 40 -13 42 -12 66 16 28 32 26
74 -4 107 -21 23 -75 23 -95 1z"/>
<path d="M1254 2696 c-8 -21 3 -36 27 -36 15 0 20 6 17 22 -4 27 -35 37 -44
14z"/>
<path d="M1524 2696 c-8 -21 3 -36 27 -36 15 0 20 6 17 22 -4 27 -35 37 -44
14z"/>
<path d="M2825 2601 c-9 -28 1 -41 31 -41 22 0 25 4 22 28 -4 34 -43 44 -53
13z"/>
<path d="M2434 2596 c-8 -21 3 -36 27 -36 15 0 20 6 17 22 -4 27 -35 37 -44
14z"/>
<path d="M1230 2570 c-44 -44 -10 -120 54 -120 36 0 60 20 69 60 5 18 0 32
-20 52 -32 33 -74 37 -103 8z"/>
<path d="M2657 2572 c-27 -30 -22 -87 9 -111 50 -40 108 -17 120 46 6 32 3 40
-20 60 -33 28 -86 31 -109 5z"/>
<path d="M1948 2563 c-42 -50 -27 -106 33 -124 40 -13 42 -12 66 16 28 32 26
74 -4 107 -21 23 -75 23 -95 1z"/>
<path d="M517 2555 c-74 -26 -118 -87 -120 -162 -1 -111 120 -155 213 -76 17
14 29 27 26 30 -2 2 -15 -7 -29 -21 -74 -74 -176 -22 -163 83 9 64 42 117 90
140 47 23 38 26 -17 6z"/>
<path d="M1020 2550 c-24 -24 -27 -82 -4 -104 9 -9 32 -16 54 -16 33 0 42 5
55 29 37 73 -49 147 -105 91z"/>
<path d="M143 2549 c21 -13 21 -56 -1 -164 -14 -66 -21 -82 -42 -92 -21 -11
-7 -13 99 -11 l125 3 13 34 14 34 -36 -31 c-30 -27 -44 -32 -85 -32 -27 0 -52
5 -55 11 -4 6 -4 35 0 65 6 51 8 54 35 54 22 0 33 -7 44 -27 14 -25 15 -26 16
-7 0 12 3 36 7 54 l6 33 -21 -21 c-12 -12 -34 -22 -48 -22 -26 0 -26 1 -19 46
10 71 12 74 62 74 37 0 50 -5 74 -31 l29 -31 0 36 0 36 -117 0 c-85 -1 -113
-3 -100 -11z"/>
<path d="M603 2540 c14 -11 29 -29 32 -40 10 -30 25 -14 25 27 0 28 -3 33 -13
25 -8 -7 -18 -7 -27 -2 -29 19 -42 10 -17 -10z"/>
<path d="M772 2543 c-54 -26 -85 -76 -90 -144 -4 -54 -2 -60 26 -89 84 -84
252 10 252 141 0 37 -24 85 -49 99 -29 15 -102 12 -139 -7z m122 -15 c9 -13
16 -43 16 -71 0 -91 -51 -167 -113 -167 -51 0 -72 29 -71 99 1 61 12 91 52
134 34 35 93 38 116 5z"/>
<path d="M3081 2529 c-16 -45 -14 -46 17 -15 16 15 46 29 67 33 l38 6 -7 -64
c-14 -129 -29 -182 -56 -196 -22 -11 -16 -13 50 -11 41 0 65 3 52 5 -13 3 -25
10 -28 18 -5 12 4 75 27 194 l11 53 36 -6 c24 -3 45 -15 59 -33 l23 -28 0 38
0 37 -139 0 -139 0 -11 -31z"/>
<path d="M3420 2545 c24 -29 -13 -228 -47 -252 -14 -11 -9 -13 36 -13 46 0 52
2 41 15 -8 10 -10 31 -5 65 l7 50 73 0 73 0 -10 -47 c-5 -27 -19 -56 -30 -65
-20 -17 -19 -18 38 -18 51 0 56 2 39 13 -17 13 -17 18 -1 105 21 116 30 140
58 152 17 6 5 9 -47 9 -38 -1 -63 -3 -55 -6 24 -9 30 -26 24 -58 -13 -67 -10
-65 -86 -65 l-70 0 6 38 c11 62 17 73 39 82 16 7 7 9 -37 9 -51 1 -57 -1 -46
-14z"/>
<path d="M3755 2546 c18 -13 18 -16 0 -117 -22 -126 -22 -129 -49 -139 -15 -6
-1 -9 44 -8 36 0 57 2 48 5 -19 5 -23 43 -12 102 5 26 11 31 34 31 37 0 54
-23 60 -84 l5 -51 45 -2 c25 -1 38 0 30 4 -25 9 -40 35 -40 70 0 20 -8 40 -22
53 -17 15 -18 20 -6 20 29 0 68 40 68 70 0 38 -24 60 -63 59 -28 0 -30 -1 -10
-9 62 -25 16 -120 -59 -120 -31 0 -32 7 -21 73 4 26 13 41 27 47 15 6 5 9 -38
9 -53 1 -58 -1 -41 -13z"/>
<path d="M4060 2545 c17 -21 -16 -221 -42 -247 -17 -17 -16 -18 40 -17 31 1
49 3 40 6 -23 6 -23 43 -3 154 11 59 22 89 37 102 20 17 19 17 -32 17 -45 0
-51 -2 -40 -15z"/>
<path d="M4209 2533 c12 -17 29 -75 42 -141 13 -66 26 -111 32 -109 6 2 39 55
74 118 34 63 74 124 88 137 l26 22 -46 0 c-42 0 -44 -1 -34 -19 10 -15 5 -32
-31 -102 -52 -103 -57 -108 -64 -72 -31 158 -31 155 -7 175 23 18 23 18 -38
18 l-62 0 20 -27z"/>
<path d="M4513 2548 c16 -12 16 -19 1 -108 -20 -118 -28 -138 -56 -150 -16 -6
17 -9 104 -9 l126 -1 11 31 c15 45 15 45 -24 10 -28 -24 -45 -31 -79 -31 -66
0 -75 21 -49 113 7 26 54 18 69 -11 11 -22 12 -22 18 15 4 21 10 47 13 58 5
16 1 15 -20 -7 -16 -17 -37 -28 -52 -28 -24 0 -26 2 -19 38 14 74 20 82 65 82
32 0 47 -6 70 -29 l29 -29 0 34 0 34 -112 0 c-92 0 -109 -2 -95 -12z"/>
<path d="M1457 2482 c-27 -30 -22 -87 9 -111 50 -40 108 -17 120 46 6 32 3 40
-20 60 -33 28 -86 31 -109 5z"/>
<path d="M1745 2451 c-9 -28 1 -41 31 -41 22 0 25 4 22 28 -4 34 -43 44 -53
13z"/>
<path d="M2130 2390 c-44 -44 -10 -120 54 -120 36 0 60 20 69 60 5 18 0 32
-20 52 -32 33 -74 37 -103 8z"/>
<path d="M1110 2370 c-24 -24 -27 -82 -4 -104 9 -9 32 -16 54 -16 33 0 42 5
55 29 37 73 -49 147 -105 91z"/>
<path d="M2808 2283 c-42 -50 -27 -106 33 -124 40 -13 42 -12 66 16 28 32 26
74 -4 107 -21 23 -75 23 -95 1z"/>
<path d="M1645 2241 c-9 -28 1 -41 31 -41 22 0 25 4 22 28 -4 34 -43 44 -53
13z"/>
<path d="M1050 2190 c-44 -44 -10 -120 54 -120 36 0 60 20 69 60 5 18 0 32
-20 52 -32 33 -74 37 -103 8z"/>
<path d="M2530 2150 c-44 -44 -10 -120 53 -120 43 0 56 10 67 50 9 30 7 37
-17 62 -32 33 -74 37 -103 8z"/>
<path d="M1540 2120 c-32 -32 -20 -102 24 -132 20 -14 73 -8 88 10 31 36 30
68 -3 107 -36 41 -77 47 -109 15z"/>
<path d="M1228 2093 c-42 -50 -27 -106 33 -124 40 -13 42 -12 66 16 28 32 26
74 -4 107 -21 23 -75 23 -95 1z"/>
<path d="M1778 2093 c-42 -50 -27 -106 33 -124 40 -13 42 -12 66 16 28 32 26
74 -4 107 -21 23 -75 23 -95 1z"/>
<path d="M1974 2096 c-8 -21 3 -36 27 -36 15 0 20 6 17 22 -4 27 -35 37 -44
14z"/>
<path d="M3020 2030 c-44 -44 -10 -120 54 -120 36 0 60 20 69 60 5 18 0 32
-20 52 -32 33 -74 37 -103 8z"/>
<path d="M2825 2021 c-9 -28 1 -41 31 -41 22 0 25 4 22 28 -4 34 -43 44 -53
13z"/>
<path d="M3390 2010 c-24 -24 -27 -82 -4 -104 9 -9 32 -16 54 -16 33 0 42 5
55 29 37 73 -49 147 -105 91z"/>
<path d="M3264 1986 c-8 -21 3 -36 27 -36 15 0 20 6 17 22 -4 27 -35 37 -44
14z"/>
<path d="M1395 1941 c-9 -28 1 -41 31 -41 22 0 25 4 22 28 -4 34 -43 44 -53
13z"/>
<path d="M2040 1940 c-44 -44 -10 -120 54 -120 36 0 60 20 69 60 5 18 0 32
-20 52 -32 33 -74 37 -103 8z"/>
<path d="M2754 1846 c-8 -21 3 -36 27 -36 15 0 20 6 17 22 -4 27 -35 37 -44
14z"/>
<path d="M3295 1811 c-9 -28 1 -41 31 -41 22 0 25 4 22 28 -4 34 -43 44 -53
13z"/>
<path d="M2858 1763 c-42 -50 -27 -106 33 -124 40 -13 42 -12 66 16 28 32 26
74 -4 107 -21 23 -75 23 -95 1z"/>
<path d="M2630 1740 c-44 -44 -10 -120 54 -120 36 0 60 20 69 60 5 18 0 32
-20 52 -32 33 -74 37 -103 8z"/>
<path d="M3010 1650 c-44 -44 -10 -120 54 -120 36 0 60 20 69 60 5 18 0 32
-20 52 -32 33 -74 37 -103 8z"/>
<path d="M2040 1560 c-24 -24 -27 -82 -4 -104 9 -9 32 -16 54 -16 33 0 42 5
55 29 37 73 -49 147 -105 91z"/>
<path d="M2785 1561 c-9 -28 1 -41 31 -41 22 0 25 4 22 28 -4 34 -43 44 -53
13z"/>
<path d="M2640 1490 c-24 -24 -27 -82 -4 -104 9 -9 32 -16 54 -16 33 0 42 5
55 29 37 73 -49 147 -105 91z"/>
<path d="M2850 1450 c-44 -44 -10 -120 54 -120 36 0 60 20 69 60 5 18 0 32
-20 52 -32 33 -74 37 -103 8z"/>
<path d="M2530 1350 c-24 -24 -27 -82 -4 -104 9 -9 32 -16 54 -16 33 0 42 5
55 29 37 73 -49 147 -105 91z"/>
<path d="M2145 1221 c-9 -28 1 -41 31 -41 22 0 25 4 22 28 -4 34 -43 44 -53
13z"/>
<path d="M2858 1213 c-42 -50 -27 -106 33 -124 40 -13 42 -12 66 16 28 32 26
74 -4 107 -21 23 -75 23 -95 1z"/>
<path d="M2630 1150 c-44 -44 -10 -120 54 -120 36 0 60 20 69 60 5 18 0 32
-20 52 -32 33 -74 37 -103 8z"/>
<path d="M2040 1060 c-44 -44 -10 -120 54 -120 36 0 60 20 69 60 5 18 0 32
-20 52 -32 33 -74 37 -103 8z"/>
<path d="M2834 986 c-8 -21 3 -36 27 -36 15 0 20 6 17 22 -4 27 -35 37 -44 14z"/>
<path d="M2688 843 c-42 -50 -27 -106 33 -124 40 -13 42 -12 66 16 28 32 26
74 -4 107 -21 23 -75 23 -95 1z"/>
<path d="M2120 820 c-24 -24 -27 -82 -4 -104 9 -9 32 -16 54 -16 33 0 42 5 55
29 37 73 -49 147 -105 91z"/>
<path d="M2685 551 c-9 -28 1 -41 31 -41 22 0 25 4 22 28 -4 34 -43 44 -53 13z"/>
</g>
</svg>
